<mxfile host="app.diagrams.net" modified="2022-07-02T14:44:03.860Z" agent="5.0 (Windows NT 10.0; Win64; x64) AppleWebKit/537.36 (KHTML, like Gecko) Chrome/102.0.0.0 Safari/537.36" etag="XDp5EYL9V9D9mCmeDNr-" version="20.0.3" type="github" pages="3">
  <diagram id="4hZAGDFgLMfpLN6_lpse" name="Page-1">
    <mxGraphModel dx="1422" dy="754" grid="1" gridSize="10" guides="1" tooltips="1" connect="1" arrows="1" fold="1" page="1" pageScale="1" pageWidth="827" pageHeight="1169" math="0" shadow="0">
      <root>
        <mxCell id="0" />
        <mxCell id="1" parent="0" />
        <mxCell id="foWkMgv5OyFYyJroZGJg-1" value="" style="whiteSpace=wrap;html=1;aspect=fixed;" parent="1" vertex="1">
          <mxGeometry x="110" y="190" width="130" height="130" as="geometry" />
        </mxCell>
        <mxCell id="foWkMgv5OyFYyJroZGJg-4" value="&lt;span style=&quot;&quot;&gt;0-100&lt;/span&gt;" style="text;html=1;align=center;verticalAlign=middle;resizable=0;points=[];autosize=1;strokeColor=none;fillColor=none;" parent="1" vertex="1">
          <mxGeometry x="175" y="330" width="50" height="20" as="geometry" />
        </mxCell>
        <mxCell id="foWkMgv5OyFYyJroZGJg-5" value="" style="whiteSpace=wrap;html=1;aspect=fixed;" parent="1" vertex="1">
          <mxGeometry x="300" y="190" width="130" height="130" as="geometry" />
        </mxCell>
        <mxCell id="foWkMgv5OyFYyJroZGJg-6" value="&lt;span style=&quot;&quot;&gt;100-200&lt;/span&gt;" style="text;html=1;align=center;verticalAlign=middle;resizable=0;points=[];autosize=1;strokeColor=none;fillColor=none;" parent="1" vertex="1">
          <mxGeometry x="360" y="330" width="60" height="20" as="geometry" />
        </mxCell>
        <mxCell id="foWkMgv5OyFYyJroZGJg-7" value="" style="whiteSpace=wrap;html=1;aspect=fixed;" parent="1" vertex="1">
          <mxGeometry x="650" y="190" width="130" height="130" as="geometry" />
        </mxCell>
        <mxCell id="foWkMgv5OyFYyJroZGJg-8" value="&lt;span style=&quot;&quot;&gt;500-1K&lt;/span&gt;" style="text;html=1;align=center;verticalAlign=middle;resizable=0;points=[];autosize=1;strokeColor=none;fillColor=none;" parent="1" vertex="1">
          <mxGeometry x="715" y="330" width="50" height="20" as="geometry" />
        </mxCell>
        <mxCell id="foWkMgv5OyFYyJroZGJg-9" value="" style="whiteSpace=wrap;html=1;aspect=fixed;" parent="1" vertex="1">
          <mxGeometry x="95" y="440" width="130" height="130" as="geometry" />
        </mxCell>
        <mxCell id="foWkMgv5OyFYyJroZGJg-10" value="&lt;span style=&quot;&quot;&gt;1K - 1.1K&lt;/span&gt;" style="text;html=1;align=center;verticalAlign=middle;resizable=0;points=[];autosize=1;strokeColor=none;fillColor=none;" parent="1" vertex="1">
          <mxGeometry x="150" y="580" width="70" height="20" as="geometry" />
        </mxCell>
        <mxCell id="foWkMgv5OyFYyJroZGJg-11" value="" style="whiteSpace=wrap;html=1;aspect=fixed;" parent="1" vertex="1">
          <mxGeometry x="650" y="430" width="130" height="130" as="geometry" />
        </mxCell>
        <mxCell id="foWkMgv5OyFYyJroZGJg-12" value="&lt;span style=&quot;&quot;&gt;1K - 2K&lt;/span&gt;" style="text;html=1;align=center;verticalAlign=middle;resizable=0;points=[];autosize=1;strokeColor=none;fillColor=none;" parent="1" vertex="1">
          <mxGeometry x="710" y="570" width="60" height="20" as="geometry" />
        </mxCell>
        <mxCell id="foWkMgv5OyFYyJroZGJg-13" value="" style="whiteSpace=wrap;html=1;aspect=fixed;" parent="1" vertex="1">
          <mxGeometry x="95" y="710" width="130" height="130" as="geometry" />
        </mxCell>
        <mxCell id="foWkMgv5OyFYyJroZGJg-14" value="&lt;span style=&quot;&quot;&gt;1M - 1.1M&lt;/span&gt;" style="text;html=1;align=center;verticalAlign=middle;resizable=0;points=[];autosize=1;strokeColor=none;fillColor=none;" parent="1" vertex="1">
          <mxGeometry x="150" y="850" width="70" height="20" as="geometry" />
        </mxCell>
      </root>
    </mxGraphModel>
  </diagram>
  <diagram id="2KJBpgcuA32N4iExD2SG" name="Page-2">
    <mxGraphModel dx="2249" dy="754" grid="1" gridSize="10" guides="1" tooltips="1" connect="1" arrows="1" fold="1" page="1" pageScale="1" pageWidth="827" pageHeight="1169" math="0" shadow="0">
      <root>
        <mxCell id="0" />
        <mxCell id="1" parent="0" />
        <mxCell id="TLtrrHX0zv7QkvqcYkQ--5" style="edgeStyle=orthogonalEdgeStyle;rounded=0;orthogonalLoop=1;jettySize=auto;html=1;" parent="1" source="TLtrrHX0zv7QkvqcYkQ--1" target="TLtrrHX0zv7QkvqcYkQ--4" edge="1">
          <mxGeometry relative="1" as="geometry" />
        </mxCell>
        <mxCell id="TLtrrHX0zv7QkvqcYkQ--1" value="" style="outlineConnect=0;dashed=0;verticalLabelPosition=bottom;verticalAlign=top;align=center;html=1;shape=mxgraph.aws3.queue;fillColor=#D9A741;gradientColor=none;" parent="1" vertex="1">
          <mxGeometry x="-370" y="170" width="169" height="48" as="geometry" />
        </mxCell>
        <mxCell id="TLtrrHX0zv7QkvqcYkQ--3" style="edgeStyle=orthogonalEdgeStyle;rounded=0;orthogonalLoop=1;jettySize=auto;html=1;entryX=0;entryY=0.5;entryDx=0;entryDy=0;entryPerimeter=0;" parent="1" source="TLtrrHX0zv7QkvqcYkQ--2" target="TLtrrHX0zv7QkvqcYkQ--1" edge="1">
          <mxGeometry relative="1" as="geometry" />
        </mxCell>
        <mxCell id="TLtrrHX0zv7QkvqcYkQ--2" value="enqueue view" style="rounded=0;whiteSpace=wrap;html=1;" parent="1" vertex="1">
          <mxGeometry x="-630" y="300" width="120" height="60" as="geometry" />
        </mxCell>
        <mxCell id="TLtrrHX0zv7QkvqcYkQ--7" style="edgeStyle=orthogonalEdgeStyle;rounded=0;orthogonalLoop=1;jettySize=auto;html=1;" parent="1" source="TLtrrHX0zv7QkvqcYkQ--4" target="TLtrrHX0zv7QkvqcYkQ--6" edge="1">
          <mxGeometry relative="1" as="geometry" />
        </mxCell>
        <mxCell id="TLtrrHX0zv7QkvqcYkQ--9" style="edgeStyle=orthogonalEdgeStyle;rounded=0;orthogonalLoop=1;jettySize=auto;html=1;entryX=0.5;entryY=0;entryDx=0;entryDy=0;entryPerimeter=0;" parent="1" source="TLtrrHX0zv7QkvqcYkQ--4" target="TLtrrHX0zv7QkvqcYkQ--8" edge="1">
          <mxGeometry relative="1" as="geometry" />
        </mxCell>
        <mxCell id="TLtrrHX0zv7QkvqcYkQ--4" value="process queue" style="rounded=0;whiteSpace=wrap;html=1;" parent="1" vertex="1">
          <mxGeometry x="-130" y="300" width="120" height="60" as="geometry" />
        </mxCell>
        <mxCell id="TLtrrHX0zv7QkvqcYkQ--6" value="db" style="shape=cylinder3;whiteSpace=wrap;html=1;boundedLbl=1;backgroundOutline=1;size=15;" parent="1" vertex="1">
          <mxGeometry x="160" y="290" width="160" height="100" as="geometry" />
        </mxCell>
        <mxCell id="TLtrrHX0zv7QkvqcYkQ--8" value="" style="outlineConnect=0;dashed=0;verticalLabelPosition=bottom;verticalAlign=top;align=center;html=1;shape=mxgraph.aws3.cache_node;fillColor=#2E73B8;gradientColor=none;" parent="1" vertex="1">
          <mxGeometry x="-130" y="553" width="100" height="107" as="geometry" />
        </mxCell>
        <mxCell id="TLtrrHX0zv7QkvqcYkQ--12" style="edgeStyle=orthogonalEdgeStyle;rounded=0;orthogonalLoop=1;jettySize=auto;html=1;" parent="1" source="TLtrrHX0zv7QkvqcYkQ--11" target="TLtrrHX0zv7QkvqcYkQ--8" edge="1">
          <mxGeometry relative="1" as="geometry" />
        </mxCell>
        <mxCell id="TLtrrHX0zv7QkvqcYkQ--11" value="read views count" style="rounded=0;whiteSpace=wrap;html=1;" parent="1" vertex="1">
          <mxGeometry x="-640" y="510" width="120" height="60" as="geometry" />
        </mxCell>
        <mxCell id="TLtrrHX0zv7QkvqcYkQ--13" value="Huge number of messages" style="text;html=1;strokeColor=#b85450;fillColor=#f8cecc;align=center;verticalAlign=middle;whiteSpace=wrap;rounded=0;" parent="1" vertex="1">
          <mxGeometry x="-340" y="90" width="90" height="50" as="geometry" />
        </mxCell>
        <mxCell id="TLtrrHX0zv7QkvqcYkQ--16" style="edgeStyle=orthogonalEdgeStyle;rounded=0;orthogonalLoop=1;jettySize=auto;html=1;entryX=0.017;entryY=0.588;entryDx=0;entryDy=0;entryPerimeter=0;" parent="1" source="TLtrrHX0zv7QkvqcYkQ--14" target="TLtrrHX0zv7QkvqcYkQ--15" edge="1">
          <mxGeometry relative="1" as="geometry" />
        </mxCell>
        <mxCell id="TLtrrHX0zv7QkvqcYkQ--14" value="update the count" style="rounded=0;whiteSpace=wrap;html=1;" parent="1" vertex="1">
          <mxGeometry x="-310" y="900" width="120" height="60" as="geometry" />
        </mxCell>
        <mxCell id="TLtrrHX0zv7QkvqcYkQ--15" value="db" style="shape=cylinder3;whiteSpace=wrap;html=1;boundedLbl=1;backgroundOutline=1;size=15;" parent="1" vertex="1">
          <mxGeometry x="50" y="890" width="60" height="80" as="geometry" />
        </mxCell>
        <mxCell id="TLtrrHX0zv7QkvqcYkQ--17" value="async" style="text;html=1;align=center;verticalAlign=middle;resizable=0;points=[];autosize=1;strokeColor=none;fillColor=none;" parent="1" vertex="1">
          <mxGeometry x="-105" y="910" width="50" height="20" as="geometry" />
        </mxCell>
      </root>
    </mxGraphModel>
  </diagram>
  <diagram id="9jKubDHi1Jx1zPYMptPG" name="Page-3">
    <mxGraphModel dx="1422" dy="754" grid="0" gridSize="10" guides="1" tooltips="1" connect="1" arrows="1" fold="1" page="1" pageScale="1" pageWidth="827" pageHeight="1169" math="0" shadow="0">
      <root>
        <mxCell id="0" />
        <mxCell id="1" parent="0" />
        <mxCell id="PskbqD1nu1POqM8v35BP-12" style="edgeStyle=orthogonalEdgeStyle;rounded=0;orthogonalLoop=1;jettySize=auto;html=1;" parent="1" source="PskbqD1nu1POqM8v35BP-2" target="PskbqD1nu1POqM8v35BP-5" edge="1">
          <mxGeometry relative="1" as="geometry" />
        </mxCell>
        <mxCell id="PskbqD1nu1POqM8v35BP-2" value="Update View count" style="rounded=1;whiteSpace=wrap;html=1;" parent="1" vertex="1">
          <mxGeometry x="250" y="470" width="120" height="60" as="geometry" />
        </mxCell>
        <mxCell id="PskbqD1nu1POqM8v35BP-3" value="DB" style="shape=cylinder3;whiteSpace=wrap;html=1;boundedLbl=1;backgroundOutline=1;size=15;" parent="1" vertex="1">
          <mxGeometry x="625" y="180" width="130" height="120" as="geometry" />
        </mxCell>
        <mxCell id="PskbqD1nu1POqM8v35BP-4" value="" style="outlineConnect=0;dashed=0;verticalLabelPosition=bottom;verticalAlign=top;align=center;html=1;shape=mxgraph.aws3.cache_node;fillColor=#2E73B8;gradientColor=none;" parent="1" vertex="1">
          <mxGeometry x="580" y="260" width="60" height="63" as="geometry" />
        </mxCell>
        <mxCell id="PskbqD1nu1POqM8v35BP-22" style="edgeStyle=orthogonalEdgeStyle;rounded=0;orthogonalLoop=1;jettySize=auto;html=1;" parent="1" source="PskbqD1nu1POqM8v35BP-5" target="PskbqD1nu1POqM8v35BP-21" edge="1">
          <mxGeometry relative="1" as="geometry" />
        </mxCell>
        <mxCell id="PskbqD1nu1POqM8v35BP-5" value="Append only log&lt;br&gt;primary" style="shape=document;whiteSpace=wrap;html=1;boundedLbl=1;" parent="1" vertex="1">
          <mxGeometry x="440" y="460" width="120" height="80" as="geometry" />
        </mxCell>
        <mxCell id="PskbqD1nu1POqM8v35BP-33" style="edgeStyle=orthogonalEdgeStyle;rounded=0;orthogonalLoop=1;jettySize=auto;html=1;entryX=0;entryY=0.5;entryDx=0;entryDy=0;entryPerimeter=0;" parent="1" source="PskbqD1nu1POqM8v35BP-6" target="PskbqD1nu1POqM8v35BP-3" edge="1">
          <mxGeometry relative="1" as="geometry" />
        </mxCell>
        <mxCell id="PskbqD1nu1POqM8v35BP-6" value="Fetch video" style="rounded=1;whiteSpace=wrap;html=1;" parent="1" vertex="1">
          <mxGeometry x="150" y="210" width="120" height="60" as="geometry" />
        </mxCell>
        <mxCell id="PskbqD1nu1POqM8v35BP-10" style="edgeStyle=orthogonalEdgeStyle;rounded=0;orthogonalLoop=1;jettySize=auto;html=1;entryX=0;entryY=0.5;entryDx=0;entryDy=0;" parent="1" source="PskbqD1nu1POqM8v35BP-7" target="PskbqD1nu1POqM8v35BP-2" edge="1">
          <mxGeometry relative="1" as="geometry" />
        </mxCell>
        <mxCell id="PskbqD1nu1POqM8v35BP-7" value="" style="shape=collate;whiteSpace=wrap;html=1;" parent="1" vertex="1">
          <mxGeometry x="110" y="480" width="40" height="40" as="geometry" />
        </mxCell>
        <mxCell id="PskbqD1nu1POqM8v35BP-9" value="Event - video watched completely" style="text;html=1;align=center;verticalAlign=middle;resizable=0;points=[];autosize=1;strokeColor=none;fillColor=none;" parent="1" vertex="1">
          <mxGeometry x="30" y="540" width="200" height="30" as="geometry" />
        </mxCell>
        <mxCell id="PskbqD1nu1POqM8v35BP-14" style="edgeStyle=orthogonalEdgeStyle;rounded=0;orthogonalLoop=1;jettySize=auto;html=1;startArrow=none;" parent="1" source="PskbqD1nu1POqM8v35BP-35" target="PskbqD1nu1POqM8v35BP-3" edge="1">
          <mxGeometry relative="1" as="geometry" />
        </mxCell>
        <mxCell id="PskbqD1nu1POqM8v35BP-11" value="Process to consolidate the counts&lt;br&gt;every 10 min" style="shape=process;whiteSpace=wrap;html=1;backgroundOutline=1;" parent="1" vertex="1">
          <mxGeometry x="670" y="460" width="120" height="60" as="geometry" />
        </mxCell>
        <mxCell id="PskbqD1nu1POqM8v35BP-27" style="edgeStyle=orthogonalEdgeStyle;rounded=0;orthogonalLoop=1;jettySize=auto;html=1;entryX=0;entryY=0.5;entryDx=0;entryDy=0;dashed=1;" parent="1" source="PskbqD1nu1POqM8v35BP-21" target="PskbqD1nu1POqM8v35BP-23" edge="1">
          <mxGeometry relative="1" as="geometry" />
        </mxCell>
        <mxCell id="PskbqD1nu1POqM8v35BP-21" value="If size of the file reaches certain thresholds, &lt;br&gt;make a copy of it" style="text;html=1;align=center;verticalAlign=middle;resizable=0;points=[];autosize=1;strokeColor=none;fillColor=none;" parent="1" vertex="1">
          <mxGeometry x="345" y="600" width="250" height="40" as="geometry" />
        </mxCell>
        <mxCell id="PskbqD1nu1POqM8v35BP-28" style="edgeStyle=orthogonalEdgeStyle;rounded=0;orthogonalLoop=1;jettySize=auto;html=1;" parent="1" source="PskbqD1nu1POqM8v35BP-23" target="PskbqD1nu1POqM8v35BP-11" edge="1">
          <mxGeometry relative="1" as="geometry" />
        </mxCell>
        <mxCell id="PskbqD1nu1POqM8v35BP-23" value="Copy of logs" style="shape=document;whiteSpace=wrap;html=1;boundedLbl=1;" parent="1" vertex="1">
          <mxGeometry x="640" y="585" width="120" height="80" as="geometry" />
        </mxCell>
        <mxCell id="PskbqD1nu1POqM8v35BP-24" value="Copy of logs" style="shape=document;whiteSpace=wrap;html=1;boundedLbl=1;" parent="1" vertex="1">
          <mxGeometry x="650" y="595" width="120" height="80" as="geometry" />
        </mxCell>
        <mxCell id="PskbqD1nu1POqM8v35BP-25" value="Copy of logs" style="shape=document;whiteSpace=wrap;html=1;boundedLbl=1;" parent="1" vertex="1">
          <mxGeometry x="660" y="605" width="120" height="80" as="geometry" />
        </mxCell>
        <mxCell id="PskbqD1nu1POqM8v35BP-30" style="edgeStyle=orthogonalEdgeStyle;rounded=0;orthogonalLoop=1;jettySize=auto;html=1;" parent="1" source="PskbqD1nu1POqM8v35BP-26" target="PskbqD1nu1POqM8v35BP-31" edge="1">
          <mxGeometry relative="1" as="geometry" />
        </mxCell>
        <mxCell id="PskbqD1nu1POqM8v35BP-26" value="Copy of logs&lt;br&gt;Secondary" style="shape=document;whiteSpace=wrap;html=1;boundedLbl=1;" parent="1" vertex="1">
          <mxGeometry x="670" y="615" width="120" height="80" as="geometry" />
        </mxCell>
        <mxCell id="PskbqD1nu1POqM8v35BP-29" value="To avoid loss of logs in case of system reboot or failure, &lt;br&gt;store the replicas on persistent storage" style="text;html=1;align=center;verticalAlign=middle;resizable=0;points=[];autosize=1;strokeColor=none;fillColor=none;" parent="1" vertex="1">
          <mxGeometry x="470" y="810" width="320" height="40" as="geometry" />
        </mxCell>
        <mxCell id="PskbqD1nu1POqM8v35BP-31" value="" style="strokeColor=#dddddd;shadow=1;strokeWidth=1;rounded=1;absoluteArcSize=1;arcSize=2;" parent="1" vertex="1">
          <mxGeometry x="600" y="750" width="115" height="40" as="geometry" />
        </mxCell>
        <mxCell id="PskbqD1nu1POqM8v35BP-32" value="Persistent&#xa;Disk" style="sketch=0;dashed=0;connectable=0;html=1;fillColor=#757575;strokeColor=none;shape=mxgraph.gcp2.persistent_disk_snapshot;part=1;labelPosition=right;verticalLabelPosition=middle;align=left;verticalAlign=middle;spacingLeft=5;fontSize=12;" parent="PskbqD1nu1POqM8v35BP-31" vertex="1">
          <mxGeometry y="0.5" width="32" height="32" relative="1" as="geometry">
            <mxPoint x="5" y="-16" as="offset" />
          </mxGeometry>
        </mxCell>
        <mxCell id="PskbqD1nu1POqM8v35BP-34" value="YouTube View Count - Design" style="text;html=1;align=center;verticalAlign=middle;resizable=0;points=[];autosize=1;strokeColor=#6c8ebf;fillColor=#dae8fc;fontSize=20;" parent="1" vertex="1">
          <mxGeometry x="45" y="40" width="290" height="40" as="geometry" />
        </mxCell>
        <mxCell id="PskbqD1nu1POqM8v35BP-35" value="Create a HashMap from logs and &lt;br&gt;then update all records in a batch" style="text;html=1;align=center;verticalAlign=middle;resizable=0;points=[];autosize=1;strokeColor=#b85450;fillColor=#f8cecc;fontSize=12;" parent="1" vertex="1">
          <mxGeometry x="620" y="410" width="200" height="40" as="geometry" />
        </mxCell>
        <mxCell id="y_Es2OrMkUJojKLgdUK0-1" value="" style="edgeStyle=orthogonalEdgeStyle;rounded=0;orthogonalLoop=1;jettySize=auto;html=1;endArrow=none;" edge="1" parent="1" source="PskbqD1nu1POqM8v35BP-11" target="PskbqD1nu1POqM8v35BP-35">
          <mxGeometry relative="1" as="geometry">
            <mxPoint x="730" y="460" as="sourcePoint" />
            <mxPoint x="690" y="300" as="targetPoint" />
          </mxGeometry>
        </mxCell>
        <mxCell id="y_Es2OrMkUJojKLgdUK0-4" value="Append only log -&amp;nbsp;&lt;br&gt;&lt;br&gt;video_id&lt;br&gt;&lt;br&gt;1&lt;br&gt;2&lt;br&gt;3" style="text;html=1;strokeColor=none;fillColor=none;align=left;verticalAlign=middle;whiteSpace=wrap;rounded=0;fontSize=12;" vertex="1" parent="1">
          <mxGeometry x="73" y="691" width="143" height="114" as="geometry" />
        </mxCell>
        <mxCell id="y_Es2OrMkUJojKLgdUK0-6" value="This can be a bottleneck &lt;br&gt;as creating hashmap &lt;br&gt;with huge number of records" style="text;html=1;align=center;verticalAlign=middle;resizable=0;points=[];autosize=1;strokeColor=#b85450;fillColor=#f8cecc;fontSize=12;" vertex="1" parent="1">
          <mxGeometry x="844" y="422" width="170" height="55" as="geometry" />
        </mxCell>
      </root>
    </mxGraphModel>
  </diagram>
</mxfile>
